#!OML:ASF E:\Steps\Project 1\Capture day 1\Session 2\Subject.ASF
:FULLY-SPECIFIED
:DEGREES
255
root 9.59924 16.6979 18.7523 -141.941 -3.67816 164.592
lowerback -7.62968 -1.7166 -4.76042
upperback 3.6627 -1.75732 -2.80834
thorax 8.22199 -1.10673 -0.568845
lowerneck 0.499302 -7.36521 0.0029142
upperneck 10.019 -10.2748 -2.23416
head 2.99156 -5.343 -0.967974
rclavicle 1.03368e-014 -6.04305e-014
rhumerus -29.3865 7.10672 -75.4484
rradius 42.8865
rwrist -8.53467
rhand -3.95828 -51.275
rfingers 7.12502
rthumb 21.794 -80.0679
lclavicle 1.03368e-014 -6.04305e-014
lhumerus -42.9453 7.26242 60.6482
lradius 22.1782
lwrist -7.01821
lhand -19.5937 -15.1707
lfingers 7.12502
lthumb 6.73201 14.7023
rfemur -55.4688 -7.32724 -7.31643
rtibia 39.1177
rfoot -24.6367 -11.8333
rtoes -44.0717
lfemur -37.5999 -13.2365 15.1847
ltibia 24.5147
lfoot -7.93812 17.6087
ltoes -23.424
256
root 9.68953 16.7205 18.7292 -142.005 -3.3285 164.384
lowerback -8.24191 -1.71243 -4.9417
upperback 4.03928 -1.68117 -2.89121
thorax 8.99272 -1.09619 -0.583987
lowerneck 0.444334 -7.36416 0.177909
upperneck 9.59377 -10.2383 -2.1895
head 2.84992 -5.30413 -0.967129
rclavicle -9.54166e-015 -3.57812e-014
rhumerus -28.6179 6.20612 -75.6447
rradius 42.4814
rwrist -8.44314
rhand -3.73409 -51.3272
rfingers 7.12502
rthumb 22.0093 -80.095
lclavicle -9.54166e-015 -3.57812e-014
lhumerus -42.5388 7.94057 60.7427
lradius 21.9045
lwrist -7.37407
lhand -19.1715 -15.0915
lfingers 7.12502
lthumb 7.13959 14.768
rfemur -55.4646 -6.93541 -7.37763
rtibia 39.0225
rfoot -24.6631 -11.7306
rtoes -43.5889
lfemur -37.4858 -12.9458 14.7965
ltibia 24.6798
lfoot -6.97446 17.2444
ltoes -20.7921
257
root 9.77637 16.7442 18.709 -142.107 -3.14993 164.315
lowerback -8.06417 -1.77697 -5.01031
upperback 3.98783 -1.77808 -2.81809
thorax 8.83996 -1.14636 -0.4743
lowerneck 0.493433 -7.28564 -0.000237778
upperneck 9.59281 -10.1411 -2.09713
head 2.85647 -5.26093 -0.905899
rclavicle -2.54444e-014 -2.62396e-014
rhumerus -28.5281 5.74231 -75.819
rradius 42.2605
rwrist -8.25107
rhand -4.44794 -51.0006
rfingers 7.12502
rthumb 21.3238 -79.8474
lclavicle -2.54444e-014 -2.62396e-014
lhumerus -42.8454 8.50745 60.8512
lradius 21.7605
lwrist -7.65779
lhand -18.8695 -15.4216
lfingers 7.12502
lthumb 7.4311 14.4279
rfemur -55.3257 -6.48654 -7.29985
rtibia 38.7441
rfoot -24.7154 -11.4866
rtoes -42.0866
lfemur -37.6 -12.7065 14.6194
ltibia 25.3078
lfoot -7.32092 16.3066
ltoes -16.6024
258
root 9.85762 16.7678 18.6948 -142.115 -3.06358 164.308
lowerback -8.01954 -1.78559 -4.92751
upperback 3.99142 -1.80257 -2.77301
thorax 8.81667 -1.15337 -0.474477
lowerneck 0.101022 -7.40642 -0.182061
upperneck 10.0575 -10.345 -1.77202
head 3.1146 -5.36028 -0.817641
rclavicle 2.54444e-014 -3.97569e-015
rhumerus -28.5149 5.15597 -76.0468
rradius 42.2894
rwrist -8.30846
rhand -7.66111 -48.7002
rfingers 7.12502
rthumb 18.2349 -77.8655
lclavicle 2.54444e-014 -3.97569e-015
lhumerus -42.8277 8.70332 61.1356
lradius 21.6066
lwrist -7.91069
lhand -18.7358 -15.3966
lfingers 7.12502
lthumb 7.56012 14.4483
rfemur -55.2798 -6.10269 -7.12313
rtibia 38.4762
rfoot -24.61 -11.3593
rtoes -40.939
lfemur -37.9517 -12.1138 14.3542
ltibia 26.2879
lfoot -7.84062 15.5096
ltoes -18.7562
259
root 9.93233 16.7915 18.6826 -142.056 -2.95705 164.253
lowerback -8.11019 -1.79084 -4.84747
upperback 4.03346 -1.81079 -2.7699
thorax 8.91308 -1.15414 -0.52237
lowerneck 0.0908338 -7.27798 0.111562
upperneck 9.81566 -10.1366 -2.03987
head 3.00358 -5.25203 -0.934284
rclavicle 1.74931e-014 3.18055e-015
rhumerus -28.3515 4.36256 -76.2762
rradius 42.1601
rwrist -8.38957
rhand -10.9124 -46.4343
rfingers 7.12502
rthumb 15.1049 -75.8631
lclavicle 1.74931e-014 3.18055e-015
lhumerus -42.7 8.73728 61.5407
lradius 21.5054
lwrist -8.13229
lhand -18.748 -15.1755
lfingers 7.12502
lthumb 7.54835 14.6698
rfemur -55.2341 -5.93371 -6.91475
rtibia 38.1499
rfoot -24.3229 -11.264
rtoes -40.9353
lfemur -38.4713 -11.3292 13.8536
ltibia 27.5148
lfoot -8.21769 15.3573
ltoes -23.3246
260
root 10.0042 16.8173 18.67 -142.097 -2.94226 164.199
lowerback -8.06944 -1.8681 -4.77757
upperback 4.04638 -1.92755 -2.70479
thorax 8.90631 -1.20777 -0.509466
lowerneck 0.0100969 -7.18759 0.119049
upperneck 9.79347 -10.0078 -2.07893
head 3.00959 -5.18888 -0.948029
rclavicle -3.18055e-015 1.03368e-014
rhumerus -28.2 3.63374 -76.4763
rradius 41.8713
rwrist -8.09612
rhand -10.4623 -47.0592
rfingers 7.12502
rthumb 15.5384 -76.455
lclavicle -3.18055e-015 1.03368e-014
lhumerus -42.8096 8.91238 61.9228
lradius 21.5494
lwrist -8.15781
lhand -18.7627 -15.5638
lfingers 7.12502
lthumb 7.53417 14.282
rfemur -54.9196 -5.9017 -6.59817
rtibia 37.5793
rfoot -23.9589 -11.1173
rtoes -41.1819
lfemur -39.0624 -10.7871 13.3537
ltibia 29.0138
lfoot -8.83095 15.6839
ltoes -22.8175
261
root 10.075 16.8427 18.6587 -142.185 -3.02059 164.229
lowerback -7.94178 -1.92194 -4.6395
upperback 4.0344 -2.02651 -2.58232
thorax 8.81986 -1.24749 -0.46551
lowerneck -0.0969472 -7.15253 0.0835293
upperneck 9.97077 -9.97393 -2.04754
head 3.09421 -5.17579 -0.943893
rclavicle 1.35174e-014 -8.74653e-015
rhumerus -28.1988 3.1409 -76.6357
rradius 41.7644
rwrist -7.86979
rhand -7.42631 -49.6016
rfingers 7.12502
rthumb 18.4608 -78.7456
lclavicle 1.35174e-014 -8.74653e-015
lhumerus -42.8913 8.94502 62.3927
lradius 21.6342
lwrist -8.01299
lhand -18.6362 -15.7953
lfingers 7.12502
lthumb 7.65628 14.0461
rfemur -54.5747 -5.8176 -6.17224
rtibia 37.0233
rfoot -23.7048 -10.9647
rtoes -40.9872
lfemur -39.7518 -10.3526 12.9434
ltibia 30.8847
lfoot -9.74823 16.4468
ltoes -20.7549
262
root 10.1423 16.8666 18.6486 -142.181 -2.9122 164.31
lowerback -7.9004 -1.91056 -4.54535
upperback 3.96815 -2.02514 -2.47086
thorax 8.72341 -1.23896 -0.394245
lowerneck -0.0888822 -7.14543 0.13957
upperneck 10.0698 -9.96683 -2.23846
head 3.11328 -5.18273 -1.01609
rclavicle 3.02153e-014 8.66701e-014
rhumerus -28.2252 2.87008 -76.7847
rradius 41.6394
rwrist -8.11095
rhand -5.6356 -51.5384
rfingers 7.12502
rthumb 20.1826 -80.51
lclavicle 3.02153e-014 8.66701e-014
lhumerus -42.8726 8.97622 62.9068
lradius 21.5922
lwrist -8.07468
lhand -18.4583 -15.4913
lfingers 7.12502
lthumb 7.82797 14.3438
rfemur -54.5327 -5.60218 -5.83295
rtibia 36.6789
rfoot -23.6066 -10.7895
rtoes -40.4342
lfemur -40.4597 -9.76261 12.4525
ltibia 32.8274
lfoot -10.5464 17.6315
ltoes -21.4362
263
root 10.2062 16.892 18.638 -142.103 -2.65588 164.398
lowerback -8.03126 -1.91146 -4.52266
upperback 3.90802 -2.02064 -2.35869
thorax 8.7378 -1.23402 -0.289567
lowerneck -0.160076 -7.10253 0.0659456
upperneck 10.1523 -9.90217 -2.48399
head 3.14602 -5.16803 -1.08696
rclavicle 1.59028e-015 -2.22639e-014
rhumerus -28.1857 2.60211 -76.9002
rradius 41.4776
rwrist -8.30943
rhand -5.53595 -52.0506
rfingers 7.12502
rthumb 20.2784 -81.012
lclavicle 1.59028e-015 -2.22639e-014
lhumerus -42.9162 9.05762 63.4989
lradius 21.6685
lwrist -8.1071
lhand -18.2788 -15.342
lfingers 7.12502
lthumb 8.00125 14.4866
rfemur -54.6454 -5.39416 -5.51573
rtibia 36.3551
rfoot -23.308 -10.7246
rtoes -40.6466
lfemur -41.1936 -9.19694 11.9254
ltibia 34.7322
lfoot -11.2266 18.7313
ltoes -22.7886
264
root 10.2735 16.917 18.6273 -142.036 -2.39817 164.514
lowerback -9.16234 -1.86689 -4.30563
upperback 4.401 -1.90042 -2.5044
thorax 9.92877 -1.1778 -0.613442
lowerneck -0.265948 -7.06205 0.236586
upperneck 9.70975 -9.81816 -2.21897
head 3.02009 -5.09269 -1.01689
rclavicle -1.35174e-014 -5.56597e-015
rhumerus -27.4646 1.78678 -77.397
rradius 41.3444
rwrist -8.12494
rhand -5.55096 -52.11
rfingers 7.12502
rthumb 20.264 -81.073
lclavicle -1.35174e-014 -5.56597e-015
lhumerus -42.0665 9.04697 63.8614
lradius 21.7103
lwrist -7.98697
lhand -18.2212 -15.2208
lfingers 7.12502
lthumb 8.05683 14.6056
rfemur -54.7155 -5.16742 -5.13472
rtibia 35.9583
rfoot -22.9739 -10.5345
rtoes -41.0312
lfemur -41.9497 -8.72444 11.4698
ltibia 36.7143
lfoot -12.1878 19.2828
ltoes -21.0408
265
root 10.3411 16.9406 18.6136 -142.114 -2.16094 164.67
lowerback -8.42628 -1.79666 -4.53458
upperback 3.93147 -1.83476 -2.32004
thorax 8.99104 -1.14547 -0.22801
lowerneck 0.0267537 -6.9453 0.187059
upperneck 10.0018 -9.69393 -2.32859
head 3.06439 -5.05215 -1.03754
rclavicle -1.51076e-014 4.77083e-015
rhumerus -28.3951 1.61673 -77.4062
rradius 41.5071
rwrist -8.1128
rhand -5.14407 -52.1191
rfingers 7.12502
rthumb 20.655 -81.0401
lclavicle -1.51076e-014 4.77083e-015
lhumerus -42.6504 8.68091 64.3855
lradius 21.8191
lwrist -8.13003
lhand -18.2487 -15.0401
lfingers 7.12502
lthumb 8.03027 14.7874
rfemur -54.5204 -4.88633 -4.7409
rtibia 35.3439
rfoot -22.7119 -10.1652
rtoes -40.7331
lfemur -42.4957 -8.362 11.0382
ltibia 38.5605
lfoot -13.268 19.4183
ltoes -16.8845
266
root 10.3951 16.9681 18.6032 -142.199 -1.97034 164.835
lowerback -8.14623 -1.73113 -4.45328
upperback 3.78903 -1.7769 -2.21327
thorax 8.6696 -1.10698 -0.134125
lowerneck -0.071872 -6.88315 0.291063
upperneck 10.2223 -9.6142 -2.56013
head 3.14196 -5.02497 -1.13884
rclavicle 1.59028e-015 2.38542e-015
rhumerus -28.758 1.05399 -77.3449
rradius 41.3304
rwrist -7.81745
rhand -4.35969 -51.2202
rfingers 7.12502
rthumb 21.4085 -80.0574
lclavicle 1.59028e-015 2.38542e-015
lhumerus -42.7425 8.44994 64.9347
lradius 21.9518
lwrist -8.19458
lhand -18.3333 -15.1737
lfingers 7.12502
lthumb 7.94863 14.6569
rfemur -54.249 -4.81133 -4.25961
rtibia 34.6366
rfoot -22.4014 -9.80839
rtoes -40.8314
lfemur -43.0969 -8.05864 10.5445
ltibia 40.4033
lfoot -13.9868 19.5052
ltoes -15.1964
